name rise42.5664peak47.7979fall81.9185.mot
datacolumns 19
datarows 11
range 0.37499400000000 0.39166200000000
endheader
time	ground_force1_vx	ground_force1_vy	ground_force1_vz	ground_force1_px	ground_force1_py	ground_force1_pz	ground_force2_vx	ground_force2_vy	ground_force2_vz	ground_force2_px	ground_force2_py	ground_force2_pz	ground_torque1_x	ground_torque1_y	ground_torque1_z	ground_torque2_x	ground_torque2_y	ground_torque2_z	
0.37499400000000	-4.69889200000000	45.95808100000000	-8.89183100000000	0.24927200000000	0.00000000000000	0.07405400000000	-42.52142700000000	804.12723400000004	-55.10262700000000	0.06011400000000	0.00000000000000	-0.08865100000000	0.00000000000000	-4.91752500000000	0.00000000000000	0.00000000000000	-12.82211100000000	0.00000000000000	
0.37668900000000	-5.07941900000000	52.65662100000000	-9.82862800000000	0.25218600000000	0.00000000000000	0.07500100000000	-43.22802000000000	801.83320100000003	-54.68623600000000	0.05933000000000	0.00000000000000	-0.08853800000000	0.00000000000000	-5.46331700000000	0.00000000000000	0.00000000000000	-12.81198100000000	0.00000000000000	
0.37832900000000	-5.37438900000000	59.31781200000000	-10.66447700000000	0.25487500000000	0.00000000000000	0.07586900000000	-43.94656500000000	799.39979200000005	-54.24355300000000	0.05854700000000	0.00000000000000	-0.08842000000000	0.00000000000000	-5.95812600000000	0.00000000000000	0.00000000000000	-12.80469000000000	0.00000000000000	
0.37999900000000	-5.57501800000000	65.87489200000000	-11.38518900000000	0.25737700000000	0.00000000000000	0.07666600000000	-44.67636300000000	796.82480299999997	-53.77477500000000	0.05776500000000	0.00000000000000	-0.08829800000000	0.00000000000000	-6.39388200000000	0.00000000000000	0.00000000000000	-12.80022900000000	0.00000000000000	
0.38166900000000	-5.67679300000000	72.28545200000001	-11.98342400000000	0.25972200000000	0.00000000000000	0.07740400000000	-45.41663200000000	794.10605499999997	-53.28013900000000	0.05698500000000	0.00000000000000	-0.08817100000000	0.00000000000000	-6.76636000000000	0.00000000000000	0.00000000000000	-12.79856900000000	0.00000000000000	
0.38332800000000	-5.67915100000000	78.53106400000000	-12.45824500000000	0.26193400000000	0.00000000000000	0.07808900000000	-46.16650500000000	791.24139700000001	-52.75992200000000	0.05620700000000	0.00000000000000	-0.08804000000000	0.00000000000000	-7.07496200000000	0.00000000000000	0.00000000000000	-12.79966400000000	0.00000000000000	
0.38500100000000	-5.58490100000000	84.61501300000000	-12.81422300000000	0.26403200000000	0.00000000000000	0.07872700000000	-46.92503100000000	788.22870899999998	-52.21443900000000	0.05543300000000	0.00000000000000	-0.08790400000000	0.00000000000000	-7.32222900000000	0.00000000000000	0.00000000000000	-12.80344600000000	0.00000000000000	
0.38666700000000	-5.39947200000000	90.55862000000000	-13.06024200000000	0.26603400000000	0.00000000000000	0.07932500000000	-47.69117700000000	785.06591400000002	-51.64404100000000	0.05466200000000	0.00000000000000	-0.08776400000000	0.00000000000000	-7.51318000000000	0.00000000000000	0.00000000000000	-12.80983200000000	0.00000000000000	
0.38833000000000	-5.13008100000000	96.39673900000000	-13.20816700000000	0.26795100000000	0.00000000000000	0.07988500000000	-48.46382800000000	781.75097800000003	-51.04912000000000	0.05389600000000	0.00000000000000	-0.08761900000000	0.00000000000000	-7.65455900000000	0.00000000000000	0.00000000000000	-12.81871700000000	0.00000000000000	
0.38999400000000	-4.78490900000000	102.17291800000000	-13.27148800000000	0.26979300000000	0.00000000000000	0.08041300000000	-49.24179000000000	778.28192000000001	-50.43010200000000	0.05313600000000	0.00000000000000	-0.08746900000000	0.00000000000000	-7.75407400000000	0.00000000000000	0.00000000000000	-12.82997800000000	0.00000000000000	
0.39166200000000	-4.37234800000000	107.93468900000001	-13.26407900000000	0.27157100000000	0.00000000000000	0.08091100000000	-50.02378800000000	774.65681500000005	-49.78745500000000	0.05238100000000	0.00000000000000	-0.08731400000000	0.00000000000000	-7.81967800000000	0.00000000000000	0.00000000000000	-12.84347400000000	0.00000000000000	
